<?xml version="1.0" encoding="utf-8"?>
<!-- Generator: Adobe Illustrator 25.2.1, SVG Export Plug-In . SVG Version: 6.00 Build 0)  -->
<svg version="1.1" id="Layer_1" xmlns="http://www.w3.org/2000/svg" xmlns:xlink="http://www.w3.org/1999/xlink" x="0px" y="0px"
	 viewBox="0 0 25 25" style="enable-background:new 0 0 25 25;" xml:space="preserve">
<style type="text/css">
	.st0{fill:#FFFFFF;}
</style>
<g id="XMLID_80_">
	<g id="XMLID_35_">
		<path id="XMLID_38_" class="st0" d="M17.78,0.23H7.22C3.23,0.23,0,3.46,0,7.45v10.57c0,3.99,3.23,7.22,7.22,7.22h10.57
			c3.99,0,7.22-3.23,7.22-7.22V7.45C25,3.46,21.77,0.23,17.78,0.23z M22.7,18.2c0,2.65-2.14,4.79-4.79,4.79H7.09
			c-2.65,0-4.79-2.14-4.79-4.79V7.38c0-2.65,2.14-4.79,4.79-4.79h10.82c2.65,0,4.79,2.14,4.79,4.79V18.2z"/>
		<path id="XMLID_41_" class="st0" d="M12.5,6.31c-3.58,0-6.49,2.9-6.49,6.49c0,3.58,2.9,6.49,6.49,6.49c3.58,0,6.49-2.9,6.49-6.49
			C18.99,9.21,16.08,6.31,12.5,6.31z M12.5,17c-2.32,0-4.2-1.88-4.2-4.2c0-2.32,1.88-4.2,4.2-4.2c2.32,0,4.2,1.88,4.2,4.2
			C16.7,15.11,14.82,17,12.5,17z"/>
		<circle id="XMLID_42_" class="st0" cx="19.2" cy="6.06" r="1.51"/>
	</g>
</g>
</svg>
