<?xml version="1.0" encoding="utf-8"?>
<!-- Generator: Adobe Illustrator 25.2.1, SVG Export Plug-In . SVG Version: 6.00 Build 0)  -->
<svg version="1.1" id="레이어_1" xmlns="http://www.w3.org/2000/svg" xmlns:xlink="http://www.w3.org/1999/xlink" x="0px"
	 y="0px" viewBox="0 0 25 25" style="enable-background:new 0 0 25 25;" xml:space="preserve">
<style type="text/css">
	.st0{fill:#FFFFFF;}
</style>
<g>
	<path class="st0" d="M13.49,16.13c0-4.93,6.33-5.33,6.33,0c0,2.43,0,8.87,0,8.87h4.75c0,0,0-6.18,0-10.7
		c0-8.31-8.87-8.01-11.08-3.92V7.59H8.74V25h4.75C13.49,25,13.49,18.73,13.49,16.13z"/>
	<path class="st0" d="M3.2,0C1.67,0,0.43,1.25,0.43,2.79c0,1.54,1.24,2.79,2.77,2.79c1.53,0,2.77-1.25,2.77-2.79
		C5.97,1.25,4.73,0,3.2,0z"/>
	<rect x="0.83" y="7.59" class="st0" width="4.75" height="17.41"/>
</g>
</svg>
