<?xml version="1.0" encoding="utf-8"?>
<!-- Generator: Adobe Illustrator 25.2.1, SVG Export Plug-In . SVG Version: 6.00 Build 0)  -->
<svg version="1.1" id="레이어_1" xmlns="http://www.w3.org/2000/svg" xmlns:xlink="http://www.w3.org/1999/xlink" x="0px"
	 y="0px" viewBox="0 0 25 25" style="enable-background:new 0 0 25 25;" xml:space="preserve">
<style type="text/css">
	.st0{fill:#FFFFFF;}
</style>
<g>
	<path class="st0" d="M7.86,22.82c9.43,0,14.59-7.82,14.59-14.59c0-0.22,0-0.44-0.01-0.66c1-0.72,1.87-1.63,2.56-2.66
		c-0.92,0.41-1.91,0.68-2.95,0.81c1.06-0.63,1.87-1.64,2.26-2.84c-0.99,0.59-2.09,1.01-3.26,1.25c-0.94-1-2.27-1.62-3.74-1.62
		c-2.83,0-5.13,2.3-5.13,5.13c0,0.4,0.05,0.79,0.13,1.17C8.05,8.58,4.27,6.54,1.74,3.44C1.3,4.2,1.05,5.08,1.05,6.02
		c0,1.78,0.91,3.35,2.28,4.27C2.49,10.26,1.7,10.03,1,9.64c0,0.02,0,0.04,0,0.07c0,2.48,1.77,4.56,4.11,5.03
		c-0.43,0.12-0.88,0.18-1.35,0.18c-0.33,0-0.65-0.03-0.96-0.09c0.65,2.04,2.55,3.52,4.79,3.56c-1.76,1.38-3.97,2.2-6.37,2.2
		c-0.41,0-0.82-0.02-1.22-0.07C2.27,21.97,4.97,22.82,7.86,22.82"/>
</g>
</svg>
