<?xml version="1.0" encoding="utf-8"?>
<!-- Generator: Adobe Illustrator 25.2.1, SVG Export Plug-In . SVG Version: 6.00 Build 0)  -->
<svg version="1.1" id="Layer_1" xmlns="http://www.w3.org/2000/svg" xmlns:xlink="http://www.w3.org/1999/xlink" x="0px" y="0px"
	 viewBox="0 0 25 25" style="enable-background:new 0 0 25 25;" xml:space="preserve">
<style type="text/css">
	.st0{fill:#FFFFFF;}
</style>
<path class="st0" d="M24.48,6.48c-0.29-1.08-1.13-1.92-2.21-2.21c-1.95-0.52-9.77-0.52-9.77-0.52s-7.82,0-9.77,0.52
	C1.66,4.56,0.81,5.41,0.52,6.48C0,8.43,0,12.5,0,12.5s0,4.07,0.52,6.02c0.29,1.08,1.13,1.92,2.21,2.21
	c1.95,0.52,9.77,0.52,9.77,0.52s7.82,0,9.77-0.52c1.08-0.29,1.92-1.13,2.21-2.21C25,16.57,25,12.5,25,12.5S25,8.43,24.48,6.48z
	 M10,16.25v-7.5l6.5,3.75L10,16.25z"/>
</svg>
